<?xml version="1.0" encoding="utf-8"?>
<svg viewBox="0 0 32 32" fill="none" xmlns="http://www.w3.org/2000/svg">
  <defs>
    <clipPath id="clip0_132:617">
      <path fill="#fff" d="M0 0h1000v351H0z"/>
    </clipPath>
  </defs>
  <g clip-path="url(#clip0_132:617)" transform="matrix(0.091047, 0, 0, 0.091168, 0, 0)">
    <path d="M231.95 9.299S204.024-1.358 178.531.145c-25.494 1.504-19.772 28.437-.517 25.143 19.255-3.295 7.416-17.87 53.936-15.99zM110.372 13.159S82.23 23.234 63.848 40.962C45.465 58.69 67.33 75.422 79.81 60.392c12.48-15.029-5.993-18.396 30.561-47.233zM20.466 93.546s-14.89 25.92-17.388 51.336c-2.498 25.417 24.997 23.973 24.752 4.439-.245-19.534-16.492-10.117-7.364-55.775zM4.912 213.503s4.939 29.481 19.135 50.71c14.196 21.229 34.53 2.666 21.947-12.276-12.584-14.942-19.166 2.646-41.082-38.434zM68.525 314.318s22.904 19.207 47.486 26.126c24.583 6.919 27.986-20.404 8.713-23.59-19.273-3.186-12.853 14.462-56.199-2.536zM182.201 351s29.89-.176 53.11-10.808c23.219-10.632 8.135-33.666-8.621-23.624-16.756 10.042-.443 19.343-44.489 34.432zM293.871 305.956s22.742-19.398 33.646-42.492c10.904-23.094-15.474-30.986-21.815-12.509-6.341 18.478 12.126 15.077-11.831 55.001zM349.44 200.825s5.207-29.436-1.071-54.191c-6.277-24.755-31.649-14.064-24.788 4.227 6.861 18.291 18.946 3.918 25.859 49.964zM325.187 83.341s-14.998-25.857-35.758-40.73c-20.759-14.875-33.259 9.658-16.222 19.215 17.038 9.556 17.008-9.223 51.98 21.515z" fill="#171717"/>
    <path d="M66.9 161.055c.253.175.545.285.851.32 2.502.177 5.003.427 7.508.48a15.81 15.81 0 006.832-.96c.91-.398 1.089-.28 1.042.71-.136 2.61.174 5.225.918 7.73a13.246 13.246 0 009.148 9.522 25.896 25.896 0 0010.724.461c4.281-.491 8.547-1.213 12.841-1.467a23.86 23.86 0 0117.098 5.935 48.623 48.623 0 018.376 9.238 36.757 36.757 0 005.509 7.941 24.61 24.61 0 00-19.768 4.473c-3.611 2.558-6.863 5.619-10.343 8.37a38.99 38.99 0 01-5.152 3.52 3.584 3.584 0 01-4.528-.754 14.13 14.13 0 01-3.912-9.516 18.26 18.26 0 014.086-11.711 2.138 2.138 0 013.259-.645c.294.145.595.273.903.384.017-.237.048-.313.023-.362-1.798-3.569-4.057-6.731-7.771-8.547a7.744 7.744 0 00-8.066 1.205c-.815.778-1.634 1.551-2.436 2.341-.65.64-1.278 1.303-2.057 2.102.539.164.86.265 1.181.36.97.217 1.924.504 2.853.858 2.236 1.032 2.598 2.431 1.085 4.364a48.33 48.33 0 01-3.376 3.712c-3.893 4.027-7.869 7.984-10.782 12.833a16.767 16.767 0 00-2.641 7.487c-.049.697.008 1.401.016 2.101l.344.094 2.835-3.502.377.135a40.58 40.58 0 01-1.261 13.888c.306-.028.6-.132.857-.302 2.029-1.475 4.104-2.893 6.055-4.464a15.845 15.845 0 004.612-5.133c.44-.891.652-.915 1.254-.127a22.962 22.962 0 005.678 5.326 13.244 13.244 0 0013.128 1.399 25.892 25.892 0 008.505-6.548c2.96-3.132 5.761-6.43 8.885-9.388a23.85 23.85 0 0116.905-6.462 48.31 48.31 0 0112.086 1.61 37.18 37.18 0 009.252 2.616 24.61 24.61 0 00-12.098 16.114c-1.107 4.285-1.615 8.722-2.498 13.069a38.888 38.888 0 01-1.662 6.015 3.588 3.588 0 01-3.945 2.346 14.116 14.116 0 01-9.13-4.742 18.256 18.256 0 01-4.439-11.581c-.105-1.588.509-2.304 2.073-2.597.318-.079.631-.175.937-.289-.14-.193-.165-.271-.215-.292-3.678-1.565-7.444-2.522-11.453-1.511a7.745 7.745 0 00-5.382 6.127c-.121 1.12-.247 2.239-.35 3.361-.083.908-.134 1.82-.214 2.932.518-.222.828-.351 1.135-.487a20.592 20.592 0 012.732-1.186c2.374-.656 3.554.18 3.646 2.632a48.249 48.249 0 01-.183 5.015c-.374 5.589-.856 11.177.049 16.761a16.775 16.775 0 002.815 7.424c.413.563.911 1.064 1.369 1.593l.323-.15-.096-4.504.376-.14a40.585 40.585 0 018.001 11.421c.216-.22.374-.489.46-.784.598-2.436 1.267-4.859 1.743-7.319.576-2.256.647-4.611.209-6.897-.239-.964-.092-1.12.876-.907a22.96 22.96 0 007.774.403 13.25 13.25 0 0010.93-7.406 25.894 25.894 0 002.269-10.492c.24-4.303.25-8.63.726-12.906a23.854 23.854 0 018.741-15.848 47.006 47.006 0 019.13-6.003 37.506 37.506 0 0010.111-4.313 24.62 24.62 0 001.108 20.109c1.908 3.993 4.374 7.717 6.495 11.613a38.898 38.898 0 012.596 5.675 3.583 3.583 0 01-1.511 4.334 14.126 14.126 0 01-10.04 2.243 18.262 18.262 0 01-10.849-6.011 2.148 2.148 0 01-.834-1.642 2.137 2.137 0 01.751-1.681c.192-.264.37-.539.531-.824-.231-.057-.301-.1-.353-.084-3.822 1.167-7.32 2.858-9.74 6.21a7.742 7.742 0 00-.179 8.154c.628.935 1.251 1.874 1.894 2.798.521.75 1.068 1.48 1.722 2.383.254-.503.408-.801.556-1.103.378-.919.822-1.81 1.329-2.665 1.396-2.03 2.836-2.15 4.484-.331a48.1 48.1 0 013.086 3.957c3.309 4.52 6.535 9.108 10.82 12.801a16.764 16.764 0 006.931 3.872c.678.166 1.381.229 2.073.34l.15-.323-2.971-3.387.198-.349a40.577 40.577 0 0113.473 3.597 1.861 1.861 0 00-.153-.896c-1.109-2.25-2.155-4.535-3.373-6.725a15.832 15.832 0 00-4.277-5.415c-.803-.585-.791-.798.088-1.258a22.94 22.94 0 006.21-4.693 13.252 13.252 0 003.605-12.702 25.897 25.897 0 00-5.013-9.492c-2.584-3.448-5.36-6.768-7.746-10.347a23.86 23.86 0 01-3.503-17.757 46.79 46.79 0 013.047-10.269 37.606 37.606 0 005.252-10.465 24.605 24.605 0 0013.756 14.914c4.02 1.851 8.296 3.139 12.417 4.781a38.958 38.958 0 015.623 2.705 3.59 3.59 0 011.607 4.3 14.116 14.116 0 01-6.289 8.141 18.25 18.25 0 01-12.185 2.31c-1.581-.178-2.177-.909-2.187-2.502a8.612 8.612 0 00-.118-.973c-.215.103-.296.115-.326.16-2.193 3.341-3.804 6.877-3.522 11.002a7.747 7.747 0 005.072 6.386c1.081.318 2.16.642 3.245.942.88.243 1.768.456 2.848.732-.126-.549-.199-.877-.278-1.203a20.731 20.731 0 01-.681-2.9c-.223-2.453.808-3.466 3.238-3.12a48.27 48.27 0 014.902 1.071c5.434 1.361 10.847 2.829 16.503 2.931 2.68.148 5.357-.35 7.805-1.451.628-.306 1.209-.707 1.812-1.064l-.091-.344-4.45-.707-.071-.394a40.567 40.567 0 0112.661-5.845 1.862 1.862 0 00-.69-.592c-2.291-1.021-4.556-2.11-6.892-3.016a15.837 15.837 0 00-6.749-1.431c-.992.063-1.119-.108-.737-1.024a22.946 22.946 0 001.778-7.579 13.243 13.243 0 00-5.345-12.073 25.912 25.912 0 00-9.921-4.098c-4.192-1-8.448-1.779-12.57-3.008a23.854 23.854 0 01-14.042-11.418 48.332 48.332 0 01-4.653-11.317 37.325 37.325 0 00-2.116-8.571c-.073-.193-.15-.384-.225-.575a24.636 24.636 0 009.745 3.333c3.446.411 6.941.089 10.255-.945 4.263-1.19 8.356-2.975 12.56-4.39a38.927 38.927 0 016.038-1.576 3.583 3.583 0 014.007 2.238 14.114 14.114 0 01.473 10.277 18.251 18.251 0 01-7.796 9.646 2.142 2.142 0 01-1.76.538 2.143 2.143 0 01-1.526-1.03 8.721 8.721 0 00-.72-.666c-.097.218-.151.279-.144.333.489 3.967 1.549 7.705 4.432 10.668a7.744 7.744 0 008 1.586c1.029-.457 2.062-.908 3.084-1.381.827-.384 1.642-.797 2.644-1.285-.452-.337-.719-.54-.99-.738a20.711 20.711 0 01-2.396-1.77c-1.757-1.726-1.626-3.165.45-4.474a47.898 47.898 0 014.431-2.355c5.023-2.479 10.1-4.862 14.479-8.444a16.77 16.77 0 005.011-6.158c.281-.639.465-1.321.693-1.983l-.292-.204-3.849 2.341-.31-.255a40.595 40.595 0 015.872-12.649 1.864 1.864 0 00-.909-.005c-2.407.704-4.839 1.339-7.206 2.16a15.833 15.833 0 00-6.072 3.276c-.715.69-.923.642-1.224-.303a22.957 22.957 0 00-3.549-6.929 13.233 13.233 0 00-11.887-5.746 25.899 25.899 0 00-10.215 3.295c-3.843 1.95-7.592 4.11-11.53 5.841a23.86 23.86 0 01-18.095.38 46.599 46.599 0 01-9.42-4.671 36.88 36.88 0 00-9.345-7.036 24.62 24.62 0 0016.975-10.986c2.512-3.644 4.514-7.636 6.837-11.415a39.007 39.007 0 013.628-5.077 3.588 3.588 0 014.511-.847 14.12 14.12 0 016.944 7.591 18.26 18.26 0 01.188 12.402 2.145 2.145 0 01-1.903 1.84 2.144 2.144 0 01-.936-.114 8.652 8.652 0 00-.979-.051c.065.23.062.311.102.349 2.915 2.733 6.123 4.926 10.235 5.355a7.757 7.757 0 004.136-.933 7.752 7.752 0 003.024-2.971c.499-1.01 1.002-2.018 1.484-3.036.39-.825.752-1.663 1.209-2.68-.563.03-.898.045-1.233.067a20.67 20.67 0 01-2.973.175c-2.456-.2-3.276-1.39-2.52-3.725a48.262 48.262 0 011.895-4.646c2.272-5.121 4.646-10.203 5.715-15.758a16.77 16.77 0 00-.093-7.939c-.194-.67-.489-1.312-.738-1.967l-.354.03-1.459 4.264-.4.002a40.587 40.587 0 01-3.589-13.476c-.278.132-.519.331-.702.579-1.398 2.082-2.859 4.127-4.152 6.274a15.844 15.844 0 00-2.566 6.404c-.107.988-.298 1.084-1.134.551a22.98 22.98 0 00-7.162-3.05 13.249 13.249 0 00-12.81 3.198 25.906 25.906 0 00-5.737 9.073c-1.703 3.958-3.2 8.018-5.116 11.87a23.863 23.863 0 01-13.655 11.879 47.406 47.406 0 01-11.017 2.543 36.675 36.675 0 00-10.432.636 24.622 24.622 0 005.805-19.268c-.433-4.404-1.481-8.746-2.145-13.131a38.928 38.928 0 01-.506-6.22 3.589 3.589 0 012.899-3.56 14.12 14.12 0 0110.203 1.317 18.255 18.255 0 018.148 9.351 2.14 2.14 0 01-1.055 3.151 8.798 8.798 0 00-.78.593c.198.134.249.198.303.2 3.991.206 7.856-.19 11.274-2.516a7.748 7.748 0 002.949-7.604c-.271-1.093-.537-2.188-.826-3.276-.234-.882-.499-1.756-.807-2.828-.41.387-.656.615-.898.848a20.596 20.596 0 01-2.158 2.052c-2.005 1.432-3.399 1.053-4.329-1.218a48.39 48.39 0 01-1.551-4.772c-1.569-5.378-3.037-10.792-5.805-15.725a16.77 16.77 0 00-5.195-6.004c-.581-.387-1.221-.686-1.833-1.026l-.252.252 1.638 4.198-.305.26a40.583 40.583 0 01-11.438-7.976c-.127.28-.183.588-.163.895.276 2.493.48 4.998.878 7.472a15.845 15.845 0 002.174 6.548c.555.824.472 1.02-.511 1.153a22.955 22.955 0 00-7.439 2.294 13.25 13.25 0 00-7.72 10.71 25.914 25.914 0 001.474 10.633c1.254 4.123 2.732 8.19 3.753 12.369a23.856 23.856 0 01-2.762 17.887 46.518 46.518 0 01-6.194 8.425 36.591 36.591 0 00-8.773 8.198 24.636 24.636 0 00-1.898-10.196 24.633 24.633 0 00-5.929-8.509c-3.144-3.114-6.722-5.787-10.033-8.739a39.03 39.03 0 01-4.359-4.465 3.586 3.586 0 01-.04-4.59 14.122 14.122 0 018.694-5.5 18.255 18.255 0 0112.241 1.997 2.146 2.146 0 011.339 1.263 2.142 2.142 0 01-.14 1.836 8.469 8.469 0 00-.221.955c.237-.024.317-.007.36-.039 3.204-2.389 5.927-5.162 7.073-9.134a7.752 7.752 0 00-2.583-7.736c-.907-.668-1.81-1.341-2.727-1.995-.743-.53-1.505-1.032-2.426-1.661-.069.559-.113.892-.15 1.226a20.7 20.7 0 01-.352 2.957c-.629 2.382-1.944 2.981-4.11 1.825a48.26 48.26 0 01-4.239-2.683c-4.641-3.138-9.226-6.369-14.506-8.399a16.766 16.766 0 00-7.831-1.306c-.694.073-1.377.251-2.066.38l-.033.355 3.94 2.186-.068.395a40.578 40.578 0 01-13.896 1.162c.081.296.234.568.446.792 1.803 1.743 3.559 3.541 5.445 5.191a15.839 15.839 0 005.852 3.654c.954.279 1.015.484.343 1.213a22.953 22.953 0 00-4.262 6.514 13.25 13.25 0 00.893 13.174 25.9 25.9 0 007.922 7.243c3.596 2.374 7.329 4.562 10.783 7.126a23.856 23.856 0 019.29 15.533 48.26 48.26 0 01.503 12.217 36.62 36.62 0 00-.932 9.948 24.625 24.625 0 00-18.016-9.308c-4.41-.366-8.869-.116-13.302-.251a38.954 38.954 0 01-6.209-.622 3.58 3.58 0 01-2.98-3.491 14.123 14.123 0 013.13-9.801 18.26 18.26 0 0110.663-6.334 2.132 2.132 0 011.838.109 2.129 2.129 0 011.072 1.496c.131.299.279.591.444.874.166-.17.238-.209.251-.262.92-3.889 1.226-7.763-.448-11.543a7.746 7.746 0 00-6.949-4.269c-1.124.07-2.248.135-3.371.223-.909.072-1.816.176-2.926.285.306.473.486.757.672 1.037a20.48 20.48 0 011.63 2.492c1.048 2.229.425 3.533-1.977 4.039a48.373 48.373 0 01-4.973.667c-5.572.577-11.16 1.047-16.511 2.883a16.77 16.77 0 00-6.84 4.031c-.485.502-.895 1.077-1.339 1.619l.203.292 4.423-.856.201.347a40.598 40.598 0 01-9.903 9.818zm59.04-59.668a1.942 1.942 0 012.109-.47c.683.17 1.344.418 1.97.74.178.078.428.337.401.459a.941.941 0 01-.451.536l-4.029-1.265zm59.6-14.257c.907-.196 1.452.423 1.924.985a9.12 9.12 0 011.044 1.827c.087.174.114.532.016.609a.943.943 0 01-.689.125l-2.295-3.546zm54.613 27.481c.819.435.836 1.26.834 1.994a9.167 9.167 0 01-.381 2.07c-.046.188-.257.48-.382.475a.944.944 0 01-.607-.349l.536-4.19zm21.215 59.068l3.094-2.875c.351.859-.165 1.503-.636 2.065a9.147 9.147 0 01-1.618 1.346c-.156.116-.505.204-.597.121a.947.947 0 01-.243-.657zm-18.692 55.809l4.22-.189c-.289.881-1.099 1.039-1.822 1.163a9.14 9.14 0 01-2.104-.021c-.194-.013-.517-.171-.533-.295a.943.943 0 01.239-.658zm-46.891 33.567a1.953 1.953 0 01-2.144-.27 9.158 9.158 0 01-1.605-1.361c-.141-.134-.289-.462-.222-.568a.942.942 0 01.605-.352l3.366 2.551zm-60.76-7.099c-.919-.127-1.218-.896-1.468-1.586a9.123 9.123 0 01-.353-2.074c-.022-.193.076-.54.194-.577a.943.943 0 01.69.118l.937 4.119zm-39.978-48.184l-1.944 3.75a1.949 1.949 0 01-.097-2.159 9.124 9.124 0 011.07-1.813c.107-.161.405-.363.52-.315a.947.947 0 01.45.536v.001zm107.721-19.252a30.334 30.334 0 01-28.614 17.802 30.33 30.33 0 1113.498-57.943 30.37 30.37 0 0115.116 40.141zm-111.96-39.754a9.185 9.185 0 011.985-.699c.186-.054.544-.016.602.095.09.225.09.475 0 .7l-3.902 1.62c-.03-.927.678-1.352 1.315-1.716z" fill="#4C4C4C"/>
    <path d="M335.373 204.294l.524-.374 5.903 4.182.491-.294c-.292-1.086-.509-2.199-.887-3.254a26.924 26.924 0 00-7.335-10.427c-6.61-6.23-14.474-10.619-22.242-15.154a77.334 77.334 0 01-6.831-4.271c-3.179-2.33-3.227-4.651-.217-7.217a33.026 33.026 0 014.035-2.566c.457-.286.909-.582 1.67-1.07-1.551-.896-2.809-1.648-4.092-2.356-1.583-.873-3.186-1.712-4.783-2.56a12.445 12.445 0 00-12.992 1.641c-4.952 4.422-7.071 10.29-8.3 16.589-.017.085.063.19.194.549a13.99 13.99 0 001.227-.985c1.799-1.817 3.304-1.989 5.32-.419 5.476 4.264 9.752 9.426 11.402 16.328a22.68 22.68 0 01-1.914 16.409 5.758 5.758 0 01-6.671 3.133 62.49 62.49 0 01-9.493-3.204c-6.575-2.739-12.931-6.059-19.625-8.444-11.487-4.093-22.369-3.523-32.516 1.681a58.772 58.772 0 005.225-15.169 77.569 77.569 0 018.828-17.537c5.876-8.528 13.728-14.366 23.876-16.566 6.751-1.463 13.661-2.19 20.494-3.28 5.741-.915 11.39-2.145 16.384-5.348 6.802-4.363 9.88-10.745 10.033-18.677a36.865 36.865 0 00-1.92-12.351c-.5-1.512-.276-1.771 1.304-1.549a25.399 25.399 0 0010.981-1.467c3.851-1.165 7.611-2.632 11.403-3.987a2.991 2.991 0 001.177-.863 65.159 65.159 0 01-19.556-10.904l.161-.623 7.211-.588.187-.54c-.921-.645-1.803-1.358-2.77-1.924a26.923 26.923 0 00-12.32-3.278c-9.067-.528-17.914 1.16-26.78 2.676-2.638.51-5.301.883-7.978 1.117-3.933.256-5.461-1.491-4.803-5.392a33.08 33.08 0 011.445-4.559c.166-.513.322-1.03.591-1.893-1.763.31-3.211.542-4.648.824-1.775.348-3.542.734-5.311 1.111a12.44 12.44 0 00-8.902 9.605c-.954 6.57 1.192 12.428 4.296 18.045.042.076.17.105.501.296.132-.508.235-1.024.308-1.544.212-2.548 1.255-3.646 3.807-3.738 6.937-.251 13.529.958 19.228 5.187a22.672 22.672 0 019.074 13.804 5.757 5.757 0 01-3.099 6.687 62.46 62.46 0 01-9.334 3.644c-6.798 2.125-13.801 3.665-20.463 6.137-11.431 4.243-19.404 11.671-23.837 22.175a58.77 58.77 0 00-7.403-17.802 74.74 74.74 0 01-3.479-16.426c-.92-10.317 1.398-19.822 7.806-27.994 4.263-5.436 9.117-10.406 13.682-15.606 3.835-4.37 7.4-8.922 9.199-14.576 2.452-7.7.748-14.578-4.197-20.781a36.876 36.876 0 00-9.362-8.283c-1.35-.845-1.342-1.187.016-2.024a25.432 25.432 0 007.517-8.139c2.22-3.355 4.178-6.884 6.233-10.348.233-.436.355-.922.355-1.416a65.155 65.155 0 01-22.014 4.09l-.273-.583 5.175-5.055-.201-.535c-1.121.09-2.254.105-3.361.287a26.92 26.92 0 00-11.575 5.34c-7.317 5.382-13.049 12.329-18.907 19.155a77.386 77.386 0 01-5.429 5.952c-2.864 2.708-5.155 2.338-7.138-1.084a32.926 32.926 0 01-1.798-4.432c-.2-.501-.409-.998-.753-1.835-1.159 1.365-2.126 2.467-3.053 3.601-1.143 1.401-2.257 2.827-3.378 4.246a12.436 12.436 0 00-.723 13.076c3.459 5.666 8.85 8.806 14.825 11.148.081.032.198-.028.575-.092a13.975 13.975 0 00-.748-1.385c-1.464-2.096-1.362-3.607.544-5.308 5.18-4.62 11.026-7.898 18.112-8.28a22.674 22.674 0 0115.796 4.834 5.756 5.756 0 011.883 7.126 62.518 62.518 0 01-4.86 8.763c-3.877 5.975-8.285 11.63-11.835 17.787-6.043 10.479-7.464 21.199-4.272 32.028a58.834 58.834 0 00-14.837-7.84 76.138 76.138 0 01-14.43-11.018c-7.361-7.286-11.725-16.043-12.105-26.42-.253-6.904.247-13.834.378-20.752.109-5.813-.107-11.591-2.382-17.071-3.097-7.464-8.838-11.618-16.619-13.163a36.851 36.851 0 00-12.496-.284c-1.576.226-1.791-.04-1.294-1.556a25.427 25.427 0 00.488-11.069c-.469-3.996-1.252-7.955-1.918-11.927a2.997 2.997 0 00-.642-1.31 65.186 65.186 0 01-14.175 17.333l-.585-.269.69-7.201-.498-.28c-.798.793-1.655 1.536-2.382 2.389a26.93 26.93 0 00-5.395 11.55c-2.115 8.835-2.009 17.84-2.078 26.835a77.553 77.553 0 01-.305 8.051c-.44 3.917-2.428 5.113-6.152 3.78a33.1 33.1 0 01-4.234-2.225c-.475-.254-.956-.498-1.759-.916-.005 1.791-.032 3.257-.007 4.722.03 1.808.1 3.615.16 5.423a12.44 12.44 0 007.887 10.454c6.299 2.095 12.444 1.013 18.519-1.054.082-.028.133-.15.38-.441-.477-.22-.967-.412-1.466-.575-2.47-.657-3.368-1.877-3.01-4.406.974-6.872 3.324-13.15 8.49-18.015 4.064-4 9.485-6.323 15.184-6.505a5.758 5.758 0 016.038 4.228c.91 3.22 1.56 6.506 1.944 9.83.895 7.066 1.178 14.232 2.44 21.225 2.159 11.965 8.04 21.103 17.553 27.315a59.195 59.195 0 00-18.33 4.101 74.832 74.832 0 01-16.873.592c-10.319-.883-19.278-4.814-26.215-12.542-4.614-5.141-8.667-10.784-12.996-16.181-3.638-4.535-7.504-8.835-12.76-11.588-7.158-3.749-14.227-3.263-21.193.532a36.858 36.858 0 00-9.78 7.784c-1.066 1.183-1.402 1.116-1.99-.367a25.425 25.425 0 00-6.713-8.814c-2.919-2.769-6.055-5.309-9.11-7.933a3 3 0 00-1.333-.596 65.164 65.164 0 01.211 22.392l-.621.168-4.081-5.974-.562.105c-.105 1.12-.287 2.239-.3 3.36a26.925 26.925 0 003.252 12.326c4.032 8.14 9.88 14.99 15.586 21.943a77.434 77.434 0 014.92 6.379c2.17 3.29 1.41 5.483-2.305 6.843a33.17 33.17 0 01-4.676 1.002c-.528.11-1.054.23-1.938.423 1.143 1.379 2.061 2.522 3.018 3.631 1.181 1.37 2.392 2.713 3.595 4.064a12.438 12.438 0 0012.752 2.978c6.18-2.423 10.207-7.189 13.55-12.667.045-.075.006-.2.008-.583-.506.138-1.005.303-1.493.497-2.318 1.078-3.789.716-5.133-1.456-3.652-5.903-5.867-12.229-5.015-19.274a22.678 22.678 0 017.5-14.72 5.755 5.755 0 017.344-.619 62.588 62.588 0 017.787 6.305c5.212 4.855 10.018 10.177 15.465 14.741 9.282 7.777 19.604 11.034 30.836 9.756-.238.23-.476.458-.71.693a59.85 59.85 0 00-8.772 11.134 77.644 77.644 0 01-14.302 13.471c-8.439 6.004-17.814 8.805-28.103 7.401-6.844-.934-13.585-2.614-20.379-3.927-5.707-1.103-11.437-1.88-17.225-.578-7.884 1.773-12.96 6.718-15.815 14.119a36.86 36.86 0 00-2.42 12.264c-.047 1.591-.347 1.758-1.755 1.008a25.435 25.435 0 00-10.82-2.377c-4.018-.222-8.053-.129-12.08-.153A2.996 2.996 0 000 186.1a65.174 65.174 0 0114.648 16.936l-.364.53-6.977-1.914-.36.443c.644.922 1.229 1.893 1.945 2.756a26.914 26.914 0 0010.455 7.294c8.34 3.597 17.23 5.036 26.08 6.644 2.654.423 5.284.984 7.88 1.68 3.783 1.104 4.62 3.269 2.67 6.709a33.067 33.067 0 01-2.918 3.79c-.331.425-.654.857-1.203 1.577 1.763.311 3.203.589 4.65.815 1.786.28 3.58.521 5.37.772a12.434 12.434 0 0011.65-5.98c3.144-5.847 3.13-12.087 2.134-18.426-.013-.087-.124-.157-.37-.451a13.9 13.9 0 00-.817 1.346c-1.07 2.322-2.425 2.997-4.856 2.211-6.604-2.137-12.385-5.527-16.294-11.451a22.677 22.677 0 01-3.806-16.075 5.76 5.76 0 015.199-5.224 62.518 62.518 0 0110.017-.232c7.115.329 14.222 1.277 21.328 1.232 12.201-.078 22.24-4.336 30-12.703a60.343 60.343 0 00.751 18.786 75.157 75.157 0 01-2.345 17.039c-2.654 10.011-8.075 18.156-16.886 23.653-5.86 3.655-12.119 6.672-18.184 10.004-5.095 2.799-9.998 5.863-13.618 10.564-4.93 6.402-5.674 13.449-3.141 20.967a36.863 36.863 0 005.976 10.979c.98 1.254.856 1.574-.706 1.897a25.423 25.423 0 00-9.841 5.088c-3.232 2.396-6.276 5.046-9.39 7.601-.367.33-.647.746-.816 1.21a65.163 65.163 0 0122.09 3.664l.058.641-6.59 2.987.007.571c1.084.297 2.155.671 3.257.877 4.259.665 8.615.297 12.702-1.072 8.714-2.564 16.471-7.139 24.306-11.558a77.571 77.571 0 017.134-3.744c3.615-1.568 5.643-.439 6.34 3.454.175 1.587.235 3.184.179 4.78.016.539.044 1.077.082 1.981 1.555-.887 2.84-1.593 4.098-2.344 1.552-.927 3.085-1.887 4.623-2.839a12.442 12.442 0 005.139-12.045c-1.319-6.506-5.316-11.297-10.134-15.536-.065-.058-.195-.042-.572-.11.048.523.125 1.043.231 1.557.661 2.47.05 3.856-2.322 4.804-6.444 2.577-13.058 3.664-19.85 1.606a22.67 22.67 0 01-13.2-9.931 5.758 5.758 0 01.66-7.341 62.458 62.458 0 017.557-6.58c5.682-4.294 11.755-8.108 17.192-12.684 9.263-7.797 14.255-17.4 14.94-28.681a60.269 60.269 0 0011.932 13.008 75.448 75.448 0 019.379 14.828c4.409 9.372 5.498 19.095 2.288 28.971-2.135 6.57-4.986 12.906-7.486 19.358-2.101 5.421-3.883 10.921-3.631 16.849.344 8.074 4.307 13.948 11.083 18.074a36.86 36.86 0 0011.637 4.561c1.558.329 1.669.654.681 1.907a25.413 25.413 0 00-4.262 10.226c-.933 3.914-1.559 7.901-2.299 11.86-.069.489-.016.988.153 1.452a65.137 65.137 0 0119.269-11.406l.457.453-3.124 6.526.373.434c1.021-.471 2.081-.874 3.057-1.425a26.92 26.92 0 009.036-8.993c5.022-7.569 8.018-16.062 11.174-24.485a77.266 77.266 0 013.053-7.456c1.759-3.527 4.038-3.967 7.076-1.435a33.065 33.065 0 013.211 3.544c.36.402.727.797 1.338 1.465.62-1.68 1.149-3.047 1.629-4.431.593-1.709 1.149-3.43 1.714-5.148a12.44 12.44 0 00-3.814-12.528c-5.195-4.133-11.337-5.229-17.753-5.376-.087-.002-.176.095-.508.284.373.37.766.719 1.178 1.044 2.095 1.465 2.519 2.92 1.313 5.172-3.277 6.119-7.64 11.206-14.164 14a22.675 22.675 0 01-16.495.889 5.756 5.756 0 01-4.216-6.045c.251-3.336.77-6.647 1.552-9.9 1.588-6.943 3.784-13.77 5.003-20.771 2.077-11.935-.282-22.504-7.023-31.585a59.63 59.63 0 0015.266 2.303 77.526 77.526 0 0118.744 5.651c9.417 4.312 16.525 11.035 20.448 20.65 2.61 6.396 4.522 13.076 6.777 19.617 1.895 5.496 4.084 10.848 8.103 15.213 5.474 5.944 12.293 7.872 20.131 6.649a36.87 36.87 0 0011.832-4.029c1.402-.754 1.696-.577 1.75 1.017a25.437 25.437 0 003.346 10.562c1.814 3.591 3.909 7.04 5.9 10.542.263.418.625.765 1.054 1.009a65.172 65.172 0 017.354-21.149l.642.051 1.826 7 .565.091c.476-1.019 1.026-2.011 1.416-3.062a26.93 26.93 0 001.096-12.701c-1.05-9.023-4.244-17.443-7.271-25.914a77.44 77.44 0 01-2.48-7.665c-.933-3.829.523-5.637 4.478-5.664 1.594.097 3.178.309 4.74.634.534.075 1.07.139 1.967.255-.611-1.683-1.089-3.069-1.616-4.436-.65-1.688-1.336-3.361-2.014-5.038a12.437 12.437 0 00-10.999-7.106c-6.636.197-12.034 3.325-17.029 7.354-.067.055-.073.186-.205.546.524.041 1.049.053 1.574.036 2.546-.233 3.808.604 4.341 3.102 1.447 6.789 1.398 13.491-1.781 19.836a22.67 22.67 0 01-12.025 11.327 5.757 5.757 0 01-7.122-1.895 62.498 62.498 0 01-5.204-8.562c-3.269-6.329-5.998-12.96-9.586-19.094-6.154-10.52-14.845-17.087-25.952-19.638a59.04 59.04 0 0013.319-7.965 78.004 78.004 0 0118.37-7.965c9.982-2.76 19.749-2.189 28.94 2.645 6.113 3.216 11.875 7.097 17.811 10.653 4.988 2.987 10.107 5.674 15.992 6.428 8.015 1.026 14.474-1.887 19.687-7.867a36.898 36.898 0 006.463-10.699c.588-1.48.927-1.534 1.994-.349a25.43 25.43 0 009.358 5.931c3.699 1.581 7.523 2.872 11.3 4.271.47.151.97.183 1.456.094a65.166 65.166 0 01-7.982-20.92zM289.786 98.01a1.514 1.514 0 01-.303-1.083c.041-.196.578-.41.89-.406 1.128-.056 2.26.02 3.371.224 1.143.286 2.421.637 2.775 2.084l-6.733-.82zM213.078 42.16a1.51 1.51 0 01-.924-.64c-.094-.177.183-.683.425-.88a14.652 14.652 0 012.738-1.98 3.128 3.128 0 013.466-.167l-5.705 3.667zm-94.371 6.837a1.513 1.513 0 01-1.119.108c-.186-.075-.301-.641-.243-.947.144-1.121.417-2.222.813-3.28.483-1.075 1.054-2.27 2.54-2.365l-1.991 6.484zM49.753 115.66c-.19.061-.642-.3-.793-.572a14.657 14.657 0 01-1.476-3.04 3.13 3.13 0 01.437-3.443l2.623 6.255a1.518 1.518 0 01-.79.8zm-8.92 94.336c-.105.17-.683.187-.974.077a14.629 14.629 0 01-3.092-1.363c-.977-.66-2.056-1.427-1.895-2.907l6.047 3.072c.116.371.086.772-.086 1.121zm53.055 77.537c.327.21.56.539.651.917.028.198-.406.58-.7.682a14.687 14.687 0 01-3.25.928c-1.172.116-2.493.216-3.315-1.026l6.614-1.501zm91.06 25.963c.386-.049.776.052 1.088.283.149.134.063.705-.097.973a14.678 14.678 0 01-1.89 2.801c-.824.843-1.77 1.769-3.198 1.347l4.097-5.404zm87.308-39.08c.2.006.503.498.554.806.25 1.102.372 2.229.364 3.359-.085 1.176-.21 2.494-1.573 3.094l-.359-6.773c.263-.286.626-.46 1.014-.486zm-97.129-147.731a48.693 48.693 0 0144.99 30.064 48.698 48.698 0 11-93.688 18.637 48.761 48.761 0 0114.279-34.421 48.76 48.76 0 0134.419-14.28zm142.184 68.097l-4.633-4.953c.017-.388.183-.755.463-1.025.158-.124.706.058.943.261a14.59 14.59 0 012.44 2.337 3.122 3.122 0 01.787 3.38z" fill="#171717"/>
  </g>
</svg>